<svg xmlns="http://www.w3.org/2000/svg" viewBox="0 0 64 64">
  <defs>
    <linearGradient id="coinA" x1="0%" x2="100%" y1="0%" y2="100%">
      <stop offset="0%" stop-color="#f6c77b" />
      <stop offset="100%" stop-color="#a76222" />
    </linearGradient>
    <linearGradient id="coinB" x1="0%" x2="100%" y1="0%" y2="100%">
      <stop offset="0%" stop-color="#f0d4b2" />
      <stop offset="100%" stop-color="#b57a46" />
    </linearGradient>
  </defs>
  <rect width="64" height="64" rx="18" fill="#f6f1e7" />
  <circle cx="26" cy="28" r="16" fill="url(#coinA)" />
  <circle cx="38" cy="36" r="16" fill="url(#coinB)" />
  <path
    d="M30 20.5c-4.5 0-7 2.2-7 5.4 0 3 2 4.4 6.2 5.4 3.2.8 4.2 1.4 4.2 2.8 0 1.6-1.4 2.6-3.9 2.6-2.3 0-4.4-.8-6.1-2.3l-2.3 3.4c2 1.8 4.5 2.8 7.2 3.1V44h3.2v-3.2c4.5-.6 7.1-3 7.1-6.6 0-3.1-1.9-4.8-6.4-5.8-3.1-.8-4-.9-4-2.5 0-1.3 1.2-2.2 3.4-2.2 2 0 3.8.6 5.5 1.8l2.1-3.4c-1.7-1.4-3.8-2.1-6-2.4v-2.7h-3.2v2.5Z"
    fill="#fff8ef"
  />
</svg>
